<?xml version="1.0" encoding="utf-8"?>
<!-- Generator: Adobe Illustrator 15.0.2, SVG Export Plug-In . SVG Version: 6.00 Build 0)  -->
<!DOCTYPE svg PUBLIC "-//W3C//DTD SVG 1.1//EN" "http://www.w3.org/Graphics/SVG/1.1/DTD/svg11.dtd">
<svg version="1.1" id="Layer_1" xmlns="http://www.w3.org/2000/svg" xmlns:xlink="http://www.w3.org/1999/xlink" x="0px" y="0px"
	 width="175.455px" height="198.545px" viewBox="0 0 175.455 198.545" enable-background="new 0 0 175.455 198.545"
	 xml:space="preserve">
<g>
	<g>
		<path fill="#76757A" d="M175.455,0h-38.302c0,20.185-12.116,37.512-29.458,45.188V0H67.759v45.188
			C50.417,37.514,38.299,20.185,38.299,0H0c0,35.012,20.519,65.226,50.183,79.298H0v39.937h50.206
			C20.529,133.301,0,163.517,0,198.541l38.299,0.004c0-20.186,12.118-37.52,29.46-45.197v45.197h39.937v-45.193
			c17.342,7.676,29.458,25.008,29.458,45.193l38.302-0.004c0-35.024-20.53-65.24-50.205-79.306h50.205V79.298h-50.18
			C154.937,65.226,175.455,35.012,175.455,0z"/>
	</g>
</g>
</svg>
